<mxfile host="65bd71144e">
    <diagram id="LSTbcFeeMctYEKIxsQwM" name="Page-1">
        <mxGraphModel dx="1024" dy="860" grid="1" gridSize="10" guides="1" tooltips="1" connect="1" arrows="1" fold="1" page="1" pageScale="1" pageWidth="827" pageHeight="1169" math="0" shadow="0">
            <root>
                <mxCell id="0"/>
                <mxCell id="1" parent="0"/>
                <mxCell id="9" style="edgeStyle=none;html=1;entryX=0.5;entryY=0;entryDx=0;entryDy=0;" edge="1" parent="1" source="2" target="8">
                    <mxGeometry relative="1" as="geometry">
                        <Array as="points">
                            <mxPoint x="570" y="260"/>
                        </Array>
                    </mxGeometry>
                </mxCell>
                <mxCell id="10" style="edgeStyle=none;html=1;entryX=0.5;entryY=0;entryDx=0;entryDy=0;" edge="1" parent="1" source="2" target="3">
                    <mxGeometry relative="1" as="geometry"/>
                </mxCell>
                <mxCell id="2" value="PoseクラスにResultsを代入" style="rounded=1;whiteSpace=wrap;html=1;" parent="1" vertex="1">
                    <mxGeometry x="280" y="230" width="120" height="60" as="geometry"/>
                </mxCell>
                <mxCell id="3" value="UpdateRepStateでレップカウント" style="rounded=1;whiteSpace=wrap;html=1;" parent="1" vertex="1">
                    <mxGeometry x="280" y="350" width="120" height="60" as="geometry"/>
                </mxCell>
                <mxCell id="4" value="State: RepStateを作成" style="rounded=1;whiteSpace=wrap;html=1;" parent="1" vertex="1">
                    <mxGeometry x="280" y="120" width="120" height="60" as="geometry"/>
                </mxCell>
                <mxCell id="7" value="レップ終了時にフォーム評価" style="rounded=1;whiteSpace=wrap;html=1;" parent="1" vertex="1">
                    <mxGeometry x="280" y="480" width="120" height="60" as="geometry"/>
                </mxCell>
                <mxCell id="8" value="ガイドラインの表示" style="rounded=1;whiteSpace=wrap;html=1;" vertex="1" parent="1">
                    <mxGeometry x="510" y="350" width="120" height="60" as="geometry"/>
                </mxCell>
            </root>
        </mxGraphModel>
    </diagram>
</mxfile>